<?xml version="1.0" standalone="no"?>
<!DOCTYPE svg PUBLIC "-//W3C//DTD SVG 20010904//EN"
 "http://www.w3.org/TR/2001/REC-SVG-20010904/DTD/svg10.dtd">
<svg version="1.0" xmlns="http://www.w3.org/2000/svg"
 width="843.000000pt" height="257.000000pt" viewBox="0 0 843.000000 257.000000"
 preserveAspectRatio="xMidYMid meet">
<metadata>
Created by potrace 1.16, written by Peter Selinger 2001-2019
</metadata>
<g transform="translate(0.000000,257.000000) scale(0.100000,-0.100000)"
fill="#000000" stroke="none">
<path d="M1305 1964 c-176 -85 -323 -158 -327 -162 -14 -15 -169 -717 -161
-733 4 -9 107 -140 228 -292 l220 -277 377 0 377 0 158 198 c87 108 191 238
231 288 l72 91 -83 363 -83 363 -329 158 c-180 88 -335 159 -344 158 -9 0
-160 -70 -336 -155z m948 -194 c6 -6 -531 -412 -600 -453 -8 -5 -130 78 -322
220 -171 125 -309 228 -307 230 1 2 141 70 311 151 l308 149 301 -145 c166
-79 305 -148 309 -152z m-433 -846 l168 -369 -340 -3 c-188 -1 -343 -1 -345 2
-3 3 285 645 324 719 8 16 17 27 19 24 3 -2 81 -171 174 -373z"/>
<path d="M5063 1605 c-31 -22 -32 -78 -1 -99 44 -31 124 -12 135 33 3 14 0 35
-8 50 -12 21 -23 27 -59 29 -29 2 -53 -3 -67 -13z"/>
<path d="M6592 1604 c-15 -10 -22 -25 -22 -49 0 -55 66 -84 123 -54 28 15 37
28 37 57 0 54 -86 83 -138 46z"/>
<path d="M6312 1308 l3 -303 73 -3 72 -3 0 306 0 305 -75 0 -75 0 2 -302z"/>
<path d="M2680 1285 l0 -286 73 3 72 3 3 92 3 91 59 7 c143 17 217 106 195
236 -9 53 -61 112 -113 127 -22 7 -96 12 -166 12 l-126 0 0 -285z"/>
<path d="M5882 1288 l3 -283 168 -3 167 -2 0 65 0 65 -90 0 -90 0 0 55 0 55
85 0 85 0 0 60 0 60 -85 0 -85 0 0 45 0 45 90 0 90 0 0 60 0 60 -170 0 -170 0
2 -282z"/>
<path d="M5355 1485 c-11 -27 -30 -53 -51 -67 -27 -18 -34 -30 -34 -55 0 -29
3 -33 25 -33 l25 0 0 -102 c0 -125 11 -169 51 -202 26 -22 41 -26 93 -26 35 0
77 5 95 11 29 10 31 14 31 64 l0 53 -47 -6 c-64 -7 -73 8 -73 120 l0 88 55 0
55 0 0 60 0 60 -55 0 -55 0 0 40 0 40 -49 0 c-49 0 -49 0 -66 -45z"/>
<path d="M6885 1485 c-11 -27 -30 -53 -51 -67 -27 -18 -34 -30 -34 -55 0 -29
3 -33 25 -33 l25 0 0 -102 c0 -125 11 -169 51 -202 26 -22 41 -26 93 -26 35 0
77 5 95 11 29 10 31 14 31 64 l0 53 -47 -6 c-64 -7 -73 8 -73 120 l0 88 55 0
55 0 0 60 0 60 -55 0 -55 0 0 40 0 40 -49 0 c-49 0 -49 0 -66 -45z"/>
<path d="M3172 1272 c3 -197 8 -214 71 -252 57 -35 175 -20 200 26 12 22 24
17 36 -16 9 -28 13 -30 65 -30 l56 0 0 225 0 225 -74 0 -74 0 -4 -138 c-4
-162 -16 -195 -71 -190 -49 5 -57 32 -57 191 l0 137 -76 0 -76 0 4 -178z"/>
<path d="M3710 1225 l0 -226 73 3 72 3 5 133 c5 126 6 135 29 153 16 13 39 19
72 19 l49 0 0 48 c0 26 3 57 6 70 6 20 3 22 -36 22 -45 0 -104 -29 -114 -55
-9 -25 -24 -17 -36 20 -11 34 -13 35 -66 35 l-54 0 0 -225z"/>
<path d="M4165 1439 c-17 -4 -43 -22 -59 -38 -22 -23 -28 -38 -28 -76 0 -66
23 -92 117 -140 47 -23 80 -46 80 -55 0 -22 -86 -25 -143 -6 -25 9 -47 16 -49
16 -2 0 -3 -27 -3 -60 l0 -59 38 -10 c20 -6 70 -11 111 -11 134 0 200 55 188
157 -6 58 -35 87 -125 129 -76 35 -89 56 -38 62 15 2 48 -4 73 -12 26 -9 48
-15 49 -13 2 1 12 23 22 48 l20 46 -52 16 c-56 18 -151 21 -201 6z"/>
<path d="M4508 1383 c-5 -139 4 -288 19 -316 40 -78 179 -92 250 -25 l23 21
11 -31 c10 -31 13 -32 65 -32 l54 0 2 210 c0 116 1 216 2 223 1 8 -20 12 -74
12 l-75 0 -5 -141 c-4 -121 -8 -145 -24 -163 -21 -23 -70 -28 -83 -8 -4 6 -10
80 -13 162 l-5 150 -72 3 -73 3 -2 -68z"/>
<path d="M5044 1437 c-2 -7 -3 -107 -2 -222 l3 -210 73 -3 72 -3 0 226 0 225
-70 0 c-48 0 -72 -4 -76 -13z"/>
<path d="M6574 1437 c-2 -7 -3 -107 -2 -222 l3 -210 73 -3 72 -3 0 226 0 225
-70 0 c-48 0 -72 -4 -76 -13z"/>
<path d="M7295 1431 c-96 -43 -140 -166 -104 -294 14 -51 77 -111 134 -127 53
-15 187 -9 228 10 24 12 27 19 27 62 0 51 -3 54 -46 38 -14 -6 -53 -11 -85
-11 -65 -1 -103 16 -112 50 -5 20 -2 21 129 21 l134 0 0 64 c0 36 -5 77 -11
93 -14 38 -57 83 -96 99 -46 20 -150 17 -198 -5z"/>
</g>
</svg>
